<svg width="50" height="50" viewBox="0 0 50 50" fill="none" xmlns="http://www.w3.org/2000/svg">
<path d="M4.16675 24.9993C4.16675 19.474 6.36168 14.175 10.2687 10.268C14.1757 6.36095 19.4747 4.16602 25.0001 4.16602C27.736 4.16602 30.445 4.70489 32.9727 5.75186C35.5003 6.79883 37.7969 8.3334 39.7315 10.268C41.666 12.2025 43.2006 14.4992 44.2476 17.0268C45.2945 19.5544 45.8334 22.2635 45.8334 24.9993C45.8334 30.5247 43.6385 35.8237 39.7315 39.7307C35.8245 43.6377 30.5254 45.8327 25.0001 45.8327C22.2642 45.8327 19.5551 45.2938 17.0275 44.2468C14.4999 43.1999 12.2032 41.6653 10.2687 39.7307C6.36168 35.8237 4.16675 30.5247 4.16675 24.9993ZM35.4167 24.9993L25.0001 14.5827V20.8327H16.6667V29.166H25.0001V35.416L35.4167 24.9993Z" fill="white"/>
</svg>
