<svg width="50" height="50" viewBox="0 0 50 50" fill="none" xmlns="http://www.w3.org/2000/svg">
<path d="M45.8333 24.9993C45.8333 30.5247 43.6384 35.8237 39.7314 39.7307C35.8244 43.6377 30.5253 45.8327 25 45.8327C22.2641 45.8327 19.555 45.2938 17.0274 44.2468C14.4998 43.1999 12.2031 41.6653 10.2686 39.7307C6.36158 35.8237 4.16664 30.5247 4.16664 24.9993C4.16664 19.474 6.36158 14.175 10.2686 10.268C14.1756 6.36095 19.4746 4.16602 25 4.16602C27.7358 4.16602 30.4449 4.70489 32.9725 5.75186C35.5002 6.79883 37.7968 8.3334 39.7314 10.268C41.6659 12.2025 43.2005 14.4992 44.2475 17.0268C45.2944 19.5544 45.8333 22.2635 45.8333 24.9993ZM14.5833 24.9993L25 35.416V29.166H33.3333V20.8327H25V14.5827L14.5833 24.9993Z" fill="white"/>
</svg>
