<svg width="17" height="17" viewBox="0 0 17 17" fill="none" xmlns="http://www.w3.org/2000/svg">
<path d="M2.74379 0H15.1551C15.6254 0 16.0764 0.188081 16.4089 0.522869C16.7414 0.857656 16.9282 1.31172 16.9282 1.78519V14.2815C16.9282 14.7549 16.7414 15.209 16.4089 15.5438C16.0764 15.8786 15.6254 16.0667 15.1551 16.0667H2.74379C2.27355 16.0667 1.82257 15.8786 1.49006 15.5438C1.15755 15.209 0.970745 14.7549 0.970745 14.2815V1.78519C0.970745 1.31172 1.15755 0.857656 1.49006 0.522869C1.82257 0.188081 2.27355 0 2.74379 0ZM14.2686 1.78519H12.0523C11.2294 1.78519 10.4402 2.11433 9.85827 2.70021C9.27637 3.28608 8.94947 4.0807 8.94947 4.90926V7.14074H7.17642V9.81852H8.94947V16.0667H11.609V9.81852H14.2686V7.14074H11.609V5.35556C11.609 5.11882 11.7024 4.89179 11.8687 4.7244C12.035 4.557 12.2604 4.46296 12.4956 4.46296H14.2686V1.78519Z" fill="white"/>
</svg>
