<svg width="17" height="17" viewBox="0 0 17 17" fill="none" xmlns="http://www.w3.org/2000/svg">
<path d="M5.53723 0H12.2394C14.7926 0 16.867 2.08867 16.867 4.65933V11.4073C16.867 12.6431 16.3795 13.8282 15.5116 14.702C14.6438 15.5758 13.4667 16.0667 12.2394 16.0667H5.53723C2.98404 16.0667 0.909573 13.978 0.909573 11.4073V4.65933C0.909573 3.4236 1.39713 2.23848 2.26498 1.36469C3.13284 0.490893 4.3099 0 5.53723 0ZM5.37766 1.60667C4.61587 1.60667 3.88527 1.91136 3.34661 2.45371C2.80794 2.99607 2.50532 3.73166 2.50532 4.49867V11.568C2.50532 13.1666 3.78989 14.46 5.37766 14.46H12.3989C13.1607 14.46 13.8913 14.1553 14.43 13.613C14.9687 13.0706 15.2713 12.335 15.2713 11.568V4.49867C15.2713 2.90003 13.9867 1.60667 12.3989 1.60667H5.37766ZM13.0771 2.81167C13.3416 2.81167 13.5953 2.91746 13.7824 3.10578C13.9694 3.2941 14.0745 3.54951 14.0745 3.81583C14.0745 4.08215 13.9694 4.33757 13.7824 4.52589C13.5953 4.7142 13.3416 4.82 13.0771 4.82C12.8126 4.82 12.5589 4.7142 12.3719 4.52589C12.1849 4.33757 12.0798 4.08215 12.0798 3.81583C12.0798 3.54951 12.1849 3.2941 12.3719 3.10578C12.5589 2.91746 12.8126 2.81167 13.0771 2.81167ZM8.8883 4.01667C9.94634 4.01667 10.9611 4.43985 11.7092 5.19312C12.4574 5.94639 12.8777 6.96805 12.8777 8.03333C12.8777 9.09862 12.4574 10.1203 11.7092 10.8735C10.9611 11.6268 9.94634 12.05 8.8883 12.05C7.83025 12.05 6.81554 11.6268 6.06739 10.8735C5.31924 10.1203 4.89893 9.09862 4.89893 8.03333C4.89893 6.96805 5.31924 5.94639 6.06739 5.19312C6.81554 4.43985 7.83025 4.01667 8.8883 4.01667ZM8.8883 5.62333C8.25347 5.62333 7.64464 5.87724 7.19575 6.32921C6.74686 6.78117 6.49468 7.39416 6.49468 8.03333C6.49468 8.6725 6.74686 9.2855 7.19575 9.73746C7.64464 10.1894 8.25347 10.4433 8.8883 10.4433C9.52312 10.4433 10.1319 10.1894 10.5808 9.73746C11.0297 9.2855 11.2819 8.6725 11.2819 8.03333C11.2819 7.39416 11.0297 6.78117 10.5808 6.32921C10.1319 5.87724 9.52312 5.62333 8.8883 5.62333Z" fill="white"/>
</svg>
