<svg width="486" height="851" viewBox="0 0 486 851" fill="none" xmlns="http://www.w3.org/2000/svg">
<path fill-rule="evenodd" clip-rule="evenodd" d="M0.727405 261.942C1.43722 271.149 2.66003 280.211 4.3673 289.101C33.8803 494.044 100.503 622.989 242.501 851C384.464 623.046 451.989 494.108 481.603 289.253C483.326 280.313 484.559 271.198 485.273 261.938C485.518 259.966 485.761 257.987 486 256L485.648 256.196C485.882 251.827 486 247.427 486 243C486 108.795 377.205 0 243 0C108.795 0 0 108.795 0 243C0 247.427 0.118407 251.827 0.352228 256.196L0 256C0.239414 257.988 0.481871 259.969 0.727405 261.942ZM362 243C362 308.722 308.722 362 243 362C177.278 362 124 308.722 124 243C124 177.278 177.278 124 243 124C308.722 124 362 177.278 362 243Z" fill="#EB5757"/>
</svg>
